<svg width="9" height="14" viewBox="0 0 9 14" fill="none" xmlns="http://www.w3.org/2000/svg">
<path d="M7 7.20129L7.69494 7.92035L8.41441 7.22502L7.71867 6.50594L7 7.20129ZM1.71867 0.304653C1.33464 -0.0922596 0.701566 -0.102704 0.304653 0.281326C-0.0922596 0.665355 -0.102704 1.29843 0.281326 1.69535L1.71867 0.304653ZM0.305058 12.2809C-0.0920712 12.6647 -0.102872 13.2978 0.280935 13.6949C0.664741 14.0921 1.29781 14.1029 1.69494 13.7191L0.305058 12.2809ZM7.71867 6.50594L1.71867 0.304653L0.281326 1.69535L6.28133 7.89664L7.71867 6.50594ZM6.30506 6.48222L0.305058 12.2809L1.69494 13.7191L7.69494 7.92035L6.30506 6.48222Z" fill="#508DFF"/>
</svg>
