<svg width="29" height="30" viewBox="0 0 29 30" fill="none" xmlns="http://www.w3.org/2000/svg">
<g id="hh">
<path id="Subtract" fill-rule="evenodd" clip-rule="evenodd" d="M0 15C0 6.99187 6.49187 0.5 14.5 0.5C22.5081 0.5 29 6.99187 29 15C29 23.0081 22.5081 29.5 14.5 29.5C6.49187 29.5 0 23.0081 0 15ZM8.32477 9V13.6312C9.07414 12.7913 9.97107 12.3679 11.0127 12.3679C11.5465 12.3679 12.0311 12.4645 12.4622 12.6551C12.8919 12.8457 13.2159 13.0894 13.4329 13.3848C13.6528 13.6843 13.8018 14.011 13.8799 14.3718C13.9595 14.7311 14 15.2893 14 16.0475V20.9986H11.6767V16.539C11.6767 15.6541 11.6333 15.0932 11.5436 14.855C11.4553 14.6154 11.3005 14.4262 11.0749 14.2887C10.8535 14.1458 10.5714 14.0763 10.2344 14.0763C9.84955 14.0763 9.5038 14.1676 9.20145 14.3472C8.89765 14.5283 8.67631 14.8006 8.53454 15.1627C8.39566 15.5261 8.32477 16.0611 8.32477 16.7718V21H6V9H8.32477ZM17.3248 13.6312V9H15V21H17.3248V16.7718C17.3248 16.0611 17.3957 15.5261 17.5345 15.1627C17.6763 14.8006 17.8976 14.5283 18.2014 14.3472C18.5038 14.1676 18.8495 14.0763 19.2344 14.0763C19.5714 14.0763 19.8535 14.1458 20.0749 14.2887C20.3005 14.4262 20.4553 14.6154 20.5436 14.855C20.6333 15.0932 20.6767 15.6541 20.6767 16.539V20.9986H23V16.0475C23 15.2893 22.9595 14.7311 22.8799 14.3718C22.8018 14.011 22.6528 13.6843 22.4329 13.3848C22.2159 13.0894 21.8919 12.8457 21.4622 12.6551C21.0311 12.4645 20.5465 12.3679 20.0127 12.3679C18.9711 12.3679 18.0741 12.7913 17.3248 13.6312Z" fill="#DF0016"/>
</g>
</svg>
