<svg width="87" height="32" viewBox="0 0 87 32" fill="none" xmlns="http://www.w3.org/2000/svg">
<path d="M42.9582 11.3142C42.5576 11.3142 42.2206 11.228 41.9471 11.0556C41.6737 10.8796 41.4811 10.6416 41.3694 10.3419L42.0511 9.95415C42.2091 10.355 42.5191 10.5555 42.9813 10.5555C43.2047 10.5555 43.3684 10.5161 43.4724 10.4375C43.5764 10.3588 43.6284 10.2595 43.6284 10.1396C43.6284 10.001 43.5648 9.89421 43.4377 9.81927C43.3106 9.7406 43.0834 9.6563 42.756 9.56638C42.575 9.51393 42.4209 9.46148 42.2938 9.40902C42.1705 9.35657 42.0454 9.28726 41.9183 9.20109C41.795 9.11117 41.7006 8.99877 41.6351 8.8639C41.5697 8.72902 41.5369 8.57167 41.5369 8.39183C41.5369 8.03591 41.666 7.75304 41.924 7.54323C42.1859 7.32968 42.4999 7.2229 42.8658 7.2229C43.1932 7.2229 43.4801 7.30158 43.7266 7.45893C43.977 7.61254 44.1715 7.82797 44.3101 8.10522L43.64 8.48175C43.4782 8.14456 43.2201 7.97596 42.8658 7.97596C42.7001 7.97596 42.5692 8.01343 42.4729 8.08836C42.3805 8.15954 42.3342 8.25321 42.3342 8.36935C42.3342 8.49299 42.3862 8.59415 42.4902 8.67282C42.5981 8.74775 42.8022 8.83018 43.1026 8.9201C43.2259 8.95756 43.3183 8.98754 43.38 9.01001C43.4454 9.02875 43.5321 9.06059 43.64 9.10555C43.7516 9.14676 43.8364 9.1861 43.8942 9.22357C43.9558 9.26104 44.0251 9.31161 44.1022 9.37531C44.1792 9.439 44.237 9.50456 44.2755 9.572C44.3179 9.63944 44.3525 9.72186 44.3795 9.81927C44.4103 9.91294 44.4257 10.016 44.4257 10.1284C44.4257 10.4918 44.289 10.7803 44.0155 10.9938C43.7459 11.2074 43.3934 11.3142 42.9582 11.3142Z" fill="white"/>
<path d="M48.8982 10.7241C48.49 11.1175 47.9931 11.3142 47.4076 11.3142C46.8222 11.3142 46.3253 11.1175 45.917 10.7241C45.5126 10.3269 45.3104 9.84175 45.3104 9.26853C45.3104 8.6953 45.5126 8.212 45.917 7.81861C46.3253 7.42147 46.8222 7.2229 47.4076 7.2229C47.9931 7.2229 48.49 7.42147 48.8982 7.81861C49.3065 8.212 49.5107 8.6953 49.5107 9.26853C49.5107 9.84175 49.3065 10.3269 48.8982 10.7241ZM46.4774 10.1958C46.7278 10.4356 47.0379 10.5555 47.4076 10.5555C47.7774 10.5555 48.0875 10.4356 48.3378 10.1958C48.5882 9.95228 48.7134 9.64318 48.7134 9.26853C48.7134 8.89387 48.5882 8.58478 48.3378 8.34125C48.0875 8.09772 47.7774 7.97596 47.4076 7.97596C47.0379 7.97596 46.7278 8.09772 46.4774 8.34125C46.2271 8.58478 46.1019 8.89387 46.1019 9.26853C46.1019 9.64318 46.2271 9.95228 46.4774 10.1958Z" fill="white"/>
<path d="M53.0638 8.0434H51.4461V8.9763H53.0176V9.71812H51.4461V11.2355H50.6488V7.30158H53.0638V8.0434Z" fill="white"/>
<path d="M56.8975 7.30158V8.0434H55.8055V11.2355H55.0082V8.0434H53.9221V7.30158H56.8975Z" fill="white"/>
<path d="M58.7639 11.2355L57.6315 7.30158H58.4692L59.2434 10.2183L60.0869 7.30158H60.7687L61.618 10.2183L62.3922 7.30158H63.2299L62.0975 11.2355H61.1904L60.4278 8.6391L59.6709 11.2355H58.7639Z" fill="white"/>
<path d="M66.6386 11.2355L66.3959 10.5274H64.784L64.5413 11.2355H63.6805L65.096 7.30158H66.0839L67.5052 11.2355H66.6386ZM65.0382 9.80241H66.1475L65.5928 8.19514L65.0382 9.80241Z" fill="white"/>
<path d="M70.6942 11.2355L69.8796 9.86985H69.2729V11.2355H68.4756V7.30158H70.0933C70.467 7.30158 70.7847 7.42896 71.0466 7.68373C71.3085 7.9385 71.4395 8.24571 71.4395 8.60538C71.4395 8.84891 71.3683 9.07558 71.2257 9.28539C71.0832 9.49145 70.8945 9.64693 70.6595 9.75184L71.5551 11.2355H70.6942ZM69.2729 8.02654V9.18985H70.0933C70.2436 9.18985 70.3726 9.13365 70.4804 9.02125C70.5883 8.90511 70.6422 8.76649 70.6422 8.60538C70.6422 8.44428 70.5883 8.30753 70.4804 8.19514C70.3726 8.08274 70.2436 8.02654 70.0933 8.02654H69.2729Z" fill="white"/>
<path d="M73.3996 10.4937H75.104V11.2355H72.6023V7.30158H75.0751V8.0434H73.3996V8.88076H74.9306V9.61134H73.3996V10.4937Z" fill="white"/>
<path d="M43.1835 14.3264C43.7382 14.3264 44.2004 14.5156 44.5701 14.894C44.9438 15.2724 45.1306 15.7389 45.1306 16.2934C45.1306 16.8478 44.9438 17.3143 44.5701 17.6927C44.2004 18.0711 43.7382 18.2603 43.1835 18.2603H41.5774V14.3264H43.1835ZM43.1835 17.5185C43.534 17.5185 43.8191 17.4061 44.0386 17.1813C44.2582 16.9527 44.3679 16.6568 44.3679 16.2934C44.3679 15.9299 44.2582 15.6358 44.0386 15.411C43.8191 15.1825 43.534 15.0682 43.1835 15.0682H42.3747V17.5185H43.1835Z" fill="white"/>
<path d="M47.0712 17.5185H48.7756V18.2603H46.2739V14.3264H48.7467V15.0682H47.0712V15.9056H48.6022V16.6362H47.0712V17.5185Z" fill="white"/>
<path d="M50.9148 18.2603L49.5571 14.3264H50.4237L51.4117 17.3499L52.3939 14.3264H53.2663L51.9028 18.2603H50.9148Z" fill="white"/>
<path d="M55.0311 17.5185H56.7355V18.2603H54.2338V14.3264H56.7066V15.0682H55.0311V15.9056H56.5621V16.6362H55.0311V17.5185Z" fill="white"/>
<path d="M58.6725 17.5185H60.2151V18.2603H57.8752V14.3264H58.6725V17.5185Z" fill="white"/>
<path d="M64.4005 17.7489C63.9922 18.1423 63.4954 18.339 62.9099 18.339C62.3245 18.339 61.8276 18.1423 61.4193 17.7489C61.0149 17.3518 60.8127 16.8666 60.8127 16.2934C60.8127 15.7201 61.0149 15.2368 61.4193 14.8434C61.8276 14.4463 62.3245 14.2477 62.9099 14.2477C63.4954 14.2477 63.9922 14.4463 64.4005 14.8434C64.8088 15.2368 65.013 15.7201 65.013 16.2934C65.013 16.8666 64.8088 17.3518 64.4005 17.7489ZM61.9797 17.2206C62.2301 17.4604 62.5402 17.5803 62.9099 17.5803C63.2797 17.5803 63.5898 17.4604 63.8401 17.2206C64.0905 16.9771 64.2157 16.668 64.2157 16.2934C64.2157 15.9187 64.0905 15.6096 63.8401 15.3661C63.5898 15.1225 63.2797 15.0008 62.9099 15.0008C62.5402 15.0008 62.2301 15.1225 61.9797 15.3661C61.7294 15.6096 61.6042 15.9187 61.6042 16.2934C61.6042 16.668 61.7294 16.9771 61.9797 17.2206Z" fill="white"/>
<path d="M67.659 14.3264C68.048 14.3264 68.3754 14.4538 68.6412 14.7086C68.907 14.9633 69.0398 15.2762 69.0398 15.6471C69.0398 16.018 68.907 16.3308 68.6412 16.5856C68.3754 16.8404 68.048 16.9677 67.659 16.9677H66.9484V18.2603H66.1511V14.3264H67.659ZM67.659 16.2428C67.8285 16.2428 67.9691 16.1866 68.0808 16.0742C68.1925 15.958 68.2483 15.8157 68.2483 15.6471C68.2483 15.4747 68.1925 15.3324 68.0808 15.22C67.9691 15.1076 67.8285 15.0514 67.659 15.0514H66.9484V16.2428H67.659Z" fill="white"/>
<path d="M74.0943 14.3264V18.2603H73.3028V15.7089L72.1646 17.5353H72.0721L70.934 15.7145V18.2603H70.1367V14.3264H70.9571L72.1184 16.1866L73.2739 14.3264H74.0943Z" fill="white"/>
<path d="M76.2229 17.5185H77.9273V18.2603H75.4256V14.3264H77.8984V15.0682H76.2229V15.9056H77.754V16.6362H76.2229V17.5185Z" fill="white"/>
<path d="M81.4069 14.3264H82.2042V18.2603H81.5976L79.8643 15.855V18.2603H79.067V14.3264H79.6737L81.4069 16.7261V14.3264Z" fill="white"/>
<path d="M86.2072 14.3264V15.0682H85.1153V18.2603H84.318V15.0682H83.2318V14.3264H86.2072Z" fill="white"/>
<path d="M43.4955 25.3638C42.887 25.3638 42.3843 25.1671 41.9876 24.7737C41.5909 24.3803 41.3925 23.8951 41.3925 23.3182C41.3925 22.7375 41.5909 22.2523 41.9876 21.8626C42.3843 21.4692 42.887 21.2725 43.4955 21.2725C43.8614 21.2725 44.1985 21.3568 44.5066 21.5254C44.8186 21.6903 45.0612 21.9151 45.2346 22.1998L44.547 22.5876C44.4469 22.4115 44.3044 22.2748 44.1195 22.1773C43.9346 22.0762 43.7266 22.0256 43.4955 22.0256C43.1026 22.0256 42.7849 22.1455 42.5422 22.3853C42.3034 22.6251 42.184 22.936 42.184 23.3182C42.184 23.6966 42.3034 24.0057 42.5422 24.2454C42.7849 24.4852 43.1026 24.6051 43.4955 24.6051C43.7266 24.6051 43.9346 24.5564 44.1195 24.459C44.3082 24.3578 44.4507 24.2211 44.547 24.0487L45.2346 24.4365C45.0612 24.7213 44.8205 24.9479 44.5124 25.1165C44.2042 25.2814 43.8653 25.3638 43.4955 25.3638Z" fill="white"/>
<path d="M49.6656 24.7737C49.2573 25.1671 48.7604 25.3638 48.175 25.3638C47.5895 25.3638 47.0926 25.1671 46.6844 24.7737C46.2799 24.3766 46.0777 23.8914 46.0777 23.3182C46.0777 22.7449 46.2799 22.2616 46.6844 21.8682C47.0926 21.4711 47.5895 21.2725 48.175 21.2725C48.7604 21.2725 49.2573 21.4711 49.6656 21.8682C50.0738 22.2616 50.278 22.7449 50.278 23.3182C50.278 23.8914 50.0738 24.3766 49.6656 24.7737ZM47.2448 24.2454C47.4951 24.4852 47.8052 24.6051 48.175 24.6051C48.5447 24.6051 48.8548 24.4852 49.1051 24.2454C49.3555 24.0019 49.4807 23.6928 49.4807 23.3182C49.4807 22.9435 49.3555 22.6344 49.1051 22.3909C48.8548 22.1474 48.5447 22.0256 48.175 22.0256C47.8052 22.0256 47.4951 22.1474 47.2448 22.3909C46.9944 22.6344 46.8692 22.9435 46.8692 23.3182C46.8692 23.6928 46.9944 24.0019 47.2448 24.2454Z" fill="white"/>
<path d="M55.3737 21.3512V25.2851H54.5822V22.7337L53.444 24.5602H53.3516L52.2134 22.7393V25.2851H51.4161V21.3512H52.2365L53.3978 23.2114L54.5533 21.3512H55.3737Z" fill="white"/>
<path d="M58.213 21.3512C58.602 21.3512 58.9294 21.4786 59.1952 21.7334C59.4609 21.9881 59.5938 22.301 59.5938 22.6719C59.5938 23.0428 59.4609 23.3556 59.1952 23.6104C58.9294 23.8652 58.602 23.9926 58.213 23.9926H57.5023V25.2851H56.705V21.3512H58.213ZM58.213 23.2676C58.3825 23.2676 58.523 23.2114 58.6347 23.099C58.7464 22.9829 58.8023 22.8405 58.8023 22.6719C58.8023 22.4995 58.7464 22.3572 58.6347 22.2448C58.523 22.1324 58.3825 22.0762 58.213 22.0762H57.5023V23.2676H58.213Z" fill="white"/>
<path d="M62.8786 25.2851L62.636 24.577H61.0241L60.7814 25.2851H59.9206L61.336 21.3512H62.324L63.7453 25.2851H62.8786ZM61.2783 23.8521H62.3876L61.8329 22.2448L61.2783 23.8521Z" fill="white"/>
<path d="M67.0556 21.3512H67.8529V25.2851H67.2463L65.513 22.8798V25.2851H64.7157V21.3512H65.3224L67.0556 23.7509V21.3512Z" fill="white"/>
<path d="M72.3817 21.3512L70.995 23.7509V25.2851H70.2035V23.7509L68.8227 21.3512H69.724L70.6022 22.9922L71.4804 21.3512H72.3817Z" fill="white"/>
<path d="M0 25.438V8.71329L4.59518 6.1207V25.438H0Z" fill="white"/>
<path fill-rule="evenodd" clip-rule="evenodd" d="M11.4225 12.2523H15.4478V7.95578H11.4225V2.28286L6.82735 4.85455V7.98461L6.83177 8.09084C6.83061 10.0182 6.82735 12.2523 6.82735 12.2523V19.4594C6.82735 21.8386 7.46853 23.4903 8.75091 24.4142C10.057 25.3382 12.2893 25.627 15.4478 25.2805V21.2265C14.5691 21.2727 13.8329 21.2842 13.2392 21.2611C12.6455 21.2149 12.1943 21.0532 11.8856 20.7761C11.5769 20.4989 11.4225 20.06 11.4225 19.4594V12.2523Z" fill="white"/>
<path d="M0.6664 3.83291C1.12998 4.26505 1.67083 4.48112 2.28894 4.48112C2.92636 4.48112 3.46721 4.26505 3.91148 3.83291C4.37506 3.38198 4.60685 2.85589 4.60685 2.25465C4.60685 1.65341 4.37506 1.12733 3.91148 0.676396C3.46721 0.225465 2.92636 0 2.28894 0C1.67083 0 1.12998 0.225465 0.6664 0.676396C0.222133 1.12733 0 1.65341 0 2.25465C0 2.85589 0.222133 3.38198 0.6664 3.83291Z" fill="white"/>
<path d="M22.159 32H17.5536V7.59301H22.159V32Z" fill="white"/>
<path fill-rule="evenodd" clip-rule="evenodd" d="M26.6924 25.3814C31.7395 25.3814 35.8311 21.4015 35.8311 16.4921C35.8311 11.5826 31.7395 7.60278 26.6924 7.60278C21.6452 7.60278 17.5536 11.5826 17.5536 16.4921C17.5536 21.4015 21.6452 25.3814 26.6924 25.3814ZM26.6924 20.9367C29.2159 20.9367 31.2617 18.9468 31.2617 16.4921C31.2617 14.0374 29.2159 12.0474 26.6924 12.0474C24.1688 12.0474 22.123 14.0374 22.123 16.4921C22.123 18.9468 24.1688 20.9367 26.6924 20.9367Z" fill="white"/>
</svg>
