<svg width="150" height="58" viewBox="0 0 150 58" fill="none" xmlns="http://www.w3.org/2000/svg">
<path d="M74.747 20.5072C74.05 20.5072 73.4636 20.351 72.9877 20.0386C72.5119 19.7195 72.1768 19.2883 71.9824 18.745L73.1687 18.0422C73.4434 18.7688 73.983 19.1321 74.7872 19.1321C75.1759 19.1321 75.4607 19.0608 75.6417 18.9182C75.8226 18.7756 75.9131 18.5956 75.9131 18.3783C75.9131 18.1271 75.8025 17.9335 75.5814 17.7977C75.3602 17.6551 74.9648 17.5023 74.3951 17.3394C74.0801 17.2443 73.8121 17.1492 73.5909 17.0541C73.3764 16.9591 73.1586 16.8335 72.9375 16.6773C72.723 16.5143 72.5588 16.3106 72.4448 16.0661C72.3309 15.8216 72.274 15.5364 72.274 15.2105C72.274 14.5654 72.4985 14.0527 72.9475 13.6724C73.4032 13.2853 73.9494 13.0918 74.5861 13.0918C75.1558 13.0918 75.6551 13.2344 76.084 13.5196C76.5196 13.798 76.8581 14.1885 77.0993 14.691L75.9332 15.3735C75.6517 14.7623 75.2027 14.4567 74.5861 14.4567C74.2979 14.4567 74.0701 14.5246 73.9025 14.6604C73.7417 14.7895 73.6613 14.9592 73.6613 15.1697C73.6613 15.3938 73.7517 15.5772 73.9327 15.7198C74.1203 15.8556 74.4755 16.005 74.9983 16.168C75.2128 16.2359 75.3736 16.2902 75.4808 16.3309C75.5948 16.3649 75.7456 16.4226 75.9332 16.5041C76.1276 16.5788 76.275 16.6501 76.3755 16.718C76.4828 16.7859 76.6034 16.8776 76.7374 16.993C76.8715 17.1085 76.972 17.2273 77.039 17.3495C77.1128 17.4718 77.1731 17.6212 77.22 17.7977C77.2736 17.9675 77.3004 18.1542 77.3004 18.358C77.3004 19.0166 77.0625 19.5395 76.5867 19.9266C76.1175 20.3137 75.5043 20.5072 74.747 20.5072Z" fill="#2A2926"/>
<path d="M85.0826 19.4377C84.3722 20.1507 83.5077 20.5072 82.489 20.5072C81.4703 20.5072 80.6057 20.1507 79.8953 19.4377C79.1916 18.7179 78.8398 17.8385 78.8398 16.7995C78.8398 15.7605 79.1916 14.8845 79.8953 14.1715C80.6057 13.4517 81.4703 13.0918 82.489 13.0918C83.5077 13.0918 84.3722 13.4517 85.0826 14.1715C85.793 14.8845 86.1482 15.7605 86.1482 16.7995C86.1482 17.8385 85.793 18.7179 85.0826 19.4377ZM80.8705 18.4802C81.3061 18.9148 81.8456 19.1321 82.489 19.1321C83.1324 19.1321 83.6719 18.9148 84.1075 18.4802C84.5431 18.0388 84.7609 17.4786 84.7609 16.7995C84.7609 16.1204 84.5431 15.5602 84.1075 15.1188C83.6719 14.6774 83.1324 14.4567 82.489 14.4567C81.8456 14.4567 81.3061 14.6774 80.8705 15.1188C80.4348 15.5602 80.217 16.1204 80.217 16.7995C80.217 17.4786 80.4348 18.0388 80.8705 18.4802Z" fill="#2A2926"/>
<path d="M92.3307 14.579H89.5159V16.2698H92.2503V17.6144H89.5159V20.3646H88.1286V13.2344H92.3307V14.579Z" fill="#2A2926"/>
<path d="M99.0013 13.2344V14.579H97.1013V20.3646H95.714V14.579H93.8241V13.2344H99.0013Z" fill="#2A2926"/>
<path d="M102.249 20.3646L100.278 13.2344H101.736L103.083 18.5209L104.551 13.2344H105.737L107.215 18.5209L108.562 13.2344H110.02L108.049 20.3646H106.471L105.144 15.6587L103.827 20.3646H102.249Z" fill="#2A2926"/>
<path d="M115.951 20.3646L115.529 19.0812H112.724L112.302 20.3646H110.804L113.267 13.2344H114.986L117.459 20.3646H115.951ZM113.166 17.7672H115.096L114.131 14.854L113.166 17.7672Z" fill="#2A2926"/>
<path d="M123.008 20.3646L121.59 17.8894H120.535V20.3646H119.147V13.2344H121.962C122.612 13.2344 123.165 13.4653 123.621 13.927C124.077 14.3888 124.304 14.9456 124.304 15.5975C124.304 16.0389 124.18 16.4498 123.932 16.8301C123.685 17.2035 123.356 17.4854 122.947 17.6755L124.505 20.3646H123.008ZM120.535 14.5484V16.6569H121.962C122.223 16.6569 122.448 16.555 122.636 16.3513C122.823 16.1408 122.917 15.8895 122.917 15.5975C122.917 15.3056 122.823 15.0577 122.636 14.854C122.448 14.6503 122.223 14.5484 121.962 14.5484H120.535Z" fill="#2A2926"/>
<path d="M127.715 19.02H130.681V20.3646H126.328V13.2344H130.63V14.579H127.715V16.0967H130.379V17.4208H127.715V19.02Z" fill="#2A2926"/>
<path d="M75.139 25.9669C76.1041 25.9669 76.9083 26.3098 77.5517 26.9957C78.2018 27.6815 78.5269 28.527 78.5269 29.532C78.5269 30.537 78.2018 31.3824 77.5517 32.0683C76.9083 32.7541 76.1041 33.0971 75.139 33.0971H72.3443V25.9669H75.139ZM75.139 31.7525C75.7489 31.7525 76.2449 31.5488 76.6269 31.1414C77.0089 30.7271 77.1999 30.1907 77.1999 29.532C77.1999 28.8733 77.0089 28.3402 76.6269 27.9328C76.2449 27.5186 75.7489 27.3114 75.139 27.3114H73.7316V31.7525H75.139Z" fill="#2A2926"/>
<path d="M81.9035 31.7525H84.8692V33.0971H80.5162V25.9669H84.8189V27.3114H81.9035V28.8291H84.5676V30.1533H81.9035V31.7525Z" fill="#2A2926"/>
<path d="M88.5915 33.0971L86.229 25.9669H87.737L89.456 31.447L91.165 25.9669H92.683L90.3105 33.0971H88.5915Z" fill="#2A2926"/>
<path d="M95.7538 31.7525H98.7194V33.0971H94.3665V25.9669H98.6691V27.3114H95.7538V28.8291H98.4178V30.1533H95.7538V31.7525Z" fill="#2A2926"/>
<path d="M102.09 31.7525H104.774V33.0971H100.703V25.9669H102.09V31.7525Z" fill="#2A2926"/>
<path d="M112.057 32.1702C111.346 32.8832 110.482 33.2397 109.463 33.2397C108.444 33.2397 107.58 32.8832 106.869 32.1702C106.166 31.4503 105.814 30.571 105.814 29.532C105.814 28.493 106.166 27.617 106.869 26.904C107.58 26.1842 108.444 25.8243 109.463 25.8243C110.482 25.8243 111.346 26.1842 112.057 26.904C112.767 27.617 113.122 28.493 113.122 29.532C113.122 30.571 112.767 31.4503 112.057 32.1702ZM107.844 31.2127C108.28 31.6473 108.82 31.8646 109.463 31.8646C110.106 31.8646 110.646 31.6473 111.081 31.2127C111.517 30.7713 111.735 30.2111 111.735 29.532C111.735 28.8529 111.517 28.2927 111.081 27.8513C110.646 27.4099 110.106 27.1892 109.463 27.1892C108.82 27.1892 108.28 27.4099 107.844 27.8513C107.409 28.2927 107.191 28.8529 107.191 29.532C107.191 30.2111 107.409 30.7713 107.844 31.2127Z" fill="#2A2926"/>
<path d="M117.726 25.9669C118.403 25.9669 118.973 26.1978 119.435 26.6595C119.898 27.1213 120.129 27.6883 120.129 28.3606C120.129 29.0329 119.898 29.5999 119.435 30.0617C118.973 30.5234 118.403 30.7543 117.726 30.7543H116.49V33.0971H115.103V25.9669H117.726ZM117.726 29.4403C118.021 29.4403 118.266 29.3384 118.46 29.1347C118.655 28.9242 118.752 28.6662 118.752 28.3606C118.752 28.0482 118.655 27.7902 118.46 27.5865C118.266 27.3827 118.021 27.2809 117.726 27.2809H116.49V29.4403H117.726Z" fill="#2A2926"/>
<path d="M128.924 25.9669V33.0971H127.547V28.4726L125.566 31.7831H125.405L123.425 28.4828V33.0971H122.037V25.9669H123.465L125.486 29.3385L127.496 25.9669H128.924Z" fill="#2A2926"/>
<path d="M132.628 31.7525H135.593V33.0971H131.24V25.9669H135.543V27.3114H132.628V28.8291H135.292V30.1533H132.628V31.7525Z" fill="#2A2926"/>
<path d="M141.648 25.9669H143.035V33.0971H141.979L138.964 28.7375V33.0971H137.576V25.9669H138.632L141.648 30.3163V25.9669Z" fill="#2A2926"/>
<path d="M150 25.9669V27.3114H148.1V33.0971H146.713V27.3114H144.823V25.9669H150Z" fill="#2A2926"/>
<path d="M75.6819 45.9722C74.623 45.9722 73.7484 45.6157 73.0581 44.9026C72.3678 44.1896 72.0226 43.3102 72.0226 42.2645C72.0226 41.2119 72.3678 40.3325 73.0581 39.6263C73.7484 38.9133 74.623 38.5568 75.6819 38.5568C76.3186 38.5568 76.905 38.7096 77.4412 39.0151C77.984 39.3139 78.4062 39.7214 78.7078 40.2375L77.5115 40.9403C77.3373 40.6211 77.0893 40.3733 76.7676 40.1967C76.4459 40.0134 76.084 39.9217 75.6819 39.9217C74.9983 39.9217 74.4454 40.139 74.0232 40.5736C73.6076 41.0082 73.3999 41.5718 73.3999 42.2645C73.3999 42.9503 73.6076 43.5106 74.0232 43.9452C74.4454 44.3798 74.9983 44.5971 75.6819 44.5971C76.084 44.5971 76.4459 44.5088 76.7676 44.3322C77.096 44.1489 77.344 43.901 77.5115 43.5886L78.7078 44.2915C78.4062 44.8076 77.9874 45.2184 77.4512 45.524C76.915 45.8228 76.3253 45.9722 75.6819 45.9722Z" fill="#2A2926"/>
<path d="M86.4178 44.9026C85.7074 45.6157 84.8428 45.9722 83.8241 45.9722C82.8054 45.9722 81.9409 45.6157 81.2305 44.9026C80.5268 44.1828 80.1749 43.3034 80.1749 42.2645C80.1749 41.2255 80.5268 40.3495 81.2305 39.6365C81.9409 38.9167 82.8054 38.5568 83.8241 38.5568C84.8428 38.5568 85.7074 38.9167 86.4178 39.6365C87.1282 40.3495 87.4834 41.2255 87.4834 42.2645C87.4834 43.3034 87.1282 44.1828 86.4178 44.9026ZM82.2056 43.9452C82.6412 44.3798 83.1807 44.5971 83.8241 44.5971C84.4675 44.5971 85.007 44.3798 85.4426 43.9452C85.8783 43.5038 86.0961 42.9435 86.0961 42.2645C86.0961 41.5854 85.8783 41.0252 85.4426 40.5838C85.007 40.1424 84.4675 39.9217 83.8241 39.9217C83.1807 39.9217 82.6412 40.1424 82.2056 40.5838C81.77 41.0252 81.5522 41.5854 81.5522 42.2645C81.5522 42.9435 81.77 43.5038 82.2056 43.9452Z" fill="#2A2926"/>
<path d="M96.35 38.6994V45.8296H94.9727V41.2051L92.9923 44.5156H92.8315L90.851 41.2153V45.8296H89.4637V38.6994H90.8912L92.9119 42.0709L94.9225 38.6994H96.35Z" fill="#2A2926"/>
<path d="M101.29 38.6994C101.967 38.6994 102.537 38.9303 102.999 39.392C103.462 39.8538 103.693 40.4208 103.693 41.0931C103.693 41.7654 103.462 42.3324 102.999 42.7941C102.537 43.2559 101.967 43.4868 101.29 43.4868H100.054V45.8296H98.6665V38.6994H101.29ZM101.29 42.1728C101.585 42.1728 101.83 42.0709 102.024 41.8672C102.218 41.6567 102.316 41.3987 102.316 41.0931C102.316 40.7807 102.218 40.5227 102.024 40.319C101.83 40.1152 101.585 40.0134 101.29 40.0134H100.054V42.1728H101.29Z" fill="#2A2926"/>
<path d="M109.409 45.8296L108.986 44.5461H106.182L105.759 45.8296H104.261L106.724 38.6994H108.443L110.916 45.8296H109.409ZM106.624 43.2321H108.554L107.589 40.319L106.624 43.2321Z" fill="#2A2926"/>
<path d="M116.676 38.6994H118.064V45.8296H117.008L113.992 41.47V45.8296H112.605V38.6994H113.661L116.676 43.0488V38.6994Z" fill="#2A2926"/>
<path d="M125.944 38.6994L123.531 43.0488V45.8296H122.154V43.0488L119.751 38.6994H121.319L122.847 41.6737L124.376 38.6994H125.944Z" fill="#2A2926"/>
<path d="M0 46.1063V15.7928L7.99562 11.0938V46.1063H0Z" fill="#2A2926"/>
<path fill-rule="evenodd" clip-rule="evenodd" d="M19.8752 22.2073H26.8791V14.4198H19.8752V4.13769L11.8796 8.79887V14.4721L11.8873 14.6647C11.8853 18.1581 11.8796 22.2073 11.8796 22.2073V35.2701C11.8796 39.5825 12.9953 42.5761 15.2266 44.2508C17.4992 45.9255 21.3834 46.4489 26.8791 45.8209V38.473C25.3502 38.5568 24.0693 38.5777 23.0363 38.5358C22.0032 38.4521 21.2181 38.159 20.681 37.6566C20.1438 37.1542 19.8752 36.3587 19.8752 35.2701V22.2073Z" fill="#2A2926"/>
<path d="M1.15954 6.94715C1.96617 7.73041 2.90724 8.12204 3.98275 8.12204C5.09187 8.12204 6.03295 7.73041 6.80597 6.94715C7.6126 6.12984 8.01592 5.17631 8.01592 4.08656C8.01592 2.99681 7.6126 2.04328 6.80597 1.22597C6.03295 0.408656 5.09187 0 3.98275 0C2.90724 0 1.96617 0.408656 1.15954 1.22597C0.386512 2.04328 0 2.99681 0 4.08656C0 5.17631 0.386512 6.12984 1.15954 6.94715Z" fill="#2A2926"/>
<path d="M38.5567 58H30.5434V13.7623H38.5567V58Z" fill="#2A2926"/>
<path fill-rule="evenodd" clip-rule="evenodd" d="M46.4447 46.0037C55.2268 46.0037 62.346 38.7902 62.346 29.8919C62.346 20.9936 55.2268 13.78 46.4447 13.78C37.6626 13.78 30.5434 20.9936 30.5434 29.8919C30.5434 38.7902 37.6626 46.0037 46.4447 46.0037ZM46.4447 37.9478C50.8357 37.9478 54.3954 34.341 54.3954 29.8919C54.3954 25.4427 50.8357 21.836 46.4447 21.836C42.0537 21.836 38.494 25.4427 38.494 29.8919C38.494 34.341 42.0537 37.9478 46.4447 37.9478Z" fill="#2A2926"/>
</svg>
