<svg width="134" height="16" viewBox="0 0 134 16" fill="none" xmlns="http://www.w3.org/2000/svg">
<path d="M1 7.73438C0.723858 7.73438 0.5 7.95823 0.5 8.23438C0.5 8.51052 0.723858 8.73438 1 8.73438V7.73438ZM133 8.23438L133.347 8.59429L133.708 8.24625L133.359 7.8863L133 8.23438ZM126.359 0.667552C126.167 0.469309 125.85 0.464439 125.652 0.656675C125.454 0.84891 125.449 1.16546 125.641 1.3637L126.359 0.667552ZM125.653 14.6246C125.454 14.8163 125.448 15.1328 125.64 15.3316C125.832 15.5303 126.148 15.5361 126.347 15.3444L125.653 14.6246ZM1 8.73438H133V7.73438H1V8.73438ZM133.359 7.8863L126.359 0.667552L125.641 1.3637L132.641 8.58245L133.359 7.8863ZM132.653 7.87446L125.653 14.6246L126.347 15.3444L133.347 8.59429L132.653 7.87446Z" fill="#508DFF"/>
</svg>
