<svg width="29" height="30" viewBox="0 0 29 30" fill="none" xmlns="http://www.w3.org/2000/svg">
<rect y="0.5" width="29" height="29" rx="14.5" fill="#1DA1F2"/>
<path d="M21.6065 11.8657C21.6065 12.0243 21.6065 12.1829 21.6065 12.3188C21.6065 17.0087 18.0268 22.4235 11.5018 22.4235C9.48538 22.4235 7.62756 21.8345 6.04163 20.8376C6.3135 20.8603 6.60803 20.8829 6.87991 20.8829C8.53381 20.8829 10.0744 20.3165 11.2979 19.3649C9.73459 19.3423 8.42053 18.3001 7.99006 16.8954C8.21663 16.9407 8.42053 16.9634 8.66975 16.9634C8.98694 16.9634 9.30413 16.9181 9.59866 16.8274C7.96741 16.5103 6.74397 15.0829 6.74397 13.361C6.74397 13.3384 6.74397 13.3384 6.74397 13.3157C7.21975 13.5876 7.7635 13.7462 8.35256 13.7688C7.401 13.1345 6.76663 12.047 6.76663 10.8009C6.76663 10.1438 6.94788 9.53213 7.24241 9.01104C8.98694 11.1634 11.6151 12.5681 14.5604 12.7267C14.4924 12.4774 14.4698 12.1829 14.4698 11.911C14.4698 9.93994 16.0557 8.354 18.0268 8.354C19.0463 8.354 19.9752 8.78447 20.6096 9.46416C21.4252 9.30557 22.1729 9.01104 22.8752 8.60322C22.6033 9.4415 22.0369 10.1212 21.3119 10.5743C22.0369 10.4837 22.7166 10.3024 23.351 10.0079C22.8979 10.7329 22.3088 11.3673 21.6065 11.8657Z" fill="white"/>
</svg>
