<svg width="29" height="30" viewBox="0 0 29 30" fill="none" xmlns="http://www.w3.org/2000/svg">
<g id="Vkontakte (VK)">
<g id="Vkontakte (VK)_2">
<rect id="Rectangle" y="0.5" width="29" height="29" rx="14.5" fill="#5181B8"/>
<path id="Vector" fill-rule="evenodd" clip-rule="evenodd" d="M23.7231 10.4894C23.8576 10.0413 23.7231 9.71191 23.0835 9.71191H20.9684C20.4306 9.71191 20.1828 9.99639 20.0483 10.3102C20.0483 10.3102 18.9727 12.9318 17.4489 14.6348C16.9559 15.1277 16.7319 15.2844 16.463 15.2844C16.3285 15.2844 16.1339 15.1277 16.1339 14.6796V10.4894C16.1339 9.95152 15.9779 9.71191 15.5296 9.71191H12.2059C11.8699 9.71191 11.6678 9.96149 11.6678 10.1981C11.6678 10.708 12.4295 10.8255 12.5081 12.2595V15.3743C12.5081 16.0571 12.3848 16.181 12.1159 16.181C11.3989 16.181 9.65484 13.5475 8.62027 10.5342C8.41752 9.9485 8.21417 9.71191 7.67362 9.71191H5.55854C4.95424 9.71191 4.83337 9.99639 4.83337 10.3102C4.83337 10.8704 5.55054 13.649 8.17217 17.3238C9.92013 19.8332 12.3824 21.1938 14.6232 21.1938C15.9677 21.1938 16.1339 20.8916 16.1339 20.3711V18.4744C16.1339 17.8701 16.2613 17.7495 16.6869 17.7495C17.0008 17.7495 17.5385 17.9063 18.7935 19.1163C20.2275 20.5502 20.4638 21.1938 21.2705 21.1938H23.3856C23.9899 21.1938 24.2921 20.8916 24.1177 20.2953C23.9271 19.701 23.2424 18.8389 22.3338 17.8167C21.8409 17.234 21.1013 16.6066 20.8774 16.293C20.5637 15.8896 20.6532 15.7104 20.8774 15.3521C20.8774 15.3521 23.4542 11.722 23.7231 10.4895V10.4894Z" fill="white"/>
</g>
</g>
</svg>
